<svg width="486" height="166" viewBox="0 0 486 166" fill="none" xmlns="http://www.w3.org/2000/svg">
<rect width="486" height="166" fill="black"/>
<path d="M112.59 50.0605L92.5834 61.2057V38.9188H78.4167V61.2057L58.4098 50.0605L51.3265 61.8993L71.3298 73.041L51.3265 84.1828L58.4098 96.0215L78.4167 84.8798V107.167H92.5834V84.8798L112.59 96.0215L119.674 84.1828L99.6702 73.041L119.674 61.8993L112.59 50.0605Z" fill="#03FFFF"/>
<path d="M175.356 103.828C172.458 103.828 169.813 103.391 167.421 102.517C165.075 101.643 163.051 100.24 161.349 98.308C159.693 96.376 158.382 93.846 157.416 90.718C156.496 87.59 156.036 83.772 156.036 79.264C156.036 74.756 156.496 70.915 157.416 67.741C158.382 64.521 159.693 61.899 161.349 59.875C163.051 57.851 165.075 56.379 167.421 55.459C169.813 54.493 172.458 54.01 175.356 54.01C179.68 54.01 183.084 54.953 185.568 56.839C188.098 58.679 190.168 61.485 191.778 65.257L183.222 69.673C182.946 68.661 182.624 67.718 182.256 66.844C181.934 65.97 181.474 65.234 180.876 64.636C180.278 64.038 179.519 63.578 178.599 63.256C177.725 62.888 176.644 62.704 175.356 62.704C172.596 62.704 170.434 63.532 168.87 65.188C167.306 66.844 166.524 69.328 166.524 72.64V85.198C166.524 88.51 167.306 90.994 168.87 92.65C170.434 94.306 172.596 95.134 175.356 95.134C176.644 95.134 177.748 94.95 178.668 94.582C179.634 94.168 180.439 93.639 181.083 92.995C181.727 92.305 182.256 91.523 182.67 90.649C183.084 89.729 183.452 88.74 183.774 87.682L191.916 92.374C191.088 94.168 190.168 95.778 189.156 97.204C188.144 98.63 186.971 99.849 185.637 100.861C184.349 101.827 182.854 102.563 181.152 103.069C179.45 103.575 177.518 103.828 175.356 103.828ZM207.225 103C203.867 103 201.452 102.264 199.98 100.792C198.554 99.274 197.841 96.974 197.841 93.892V51.94H207.501V95.479H211.572V103H207.225ZM221.808 62.359C219.83 62.359 218.381 61.945 217.461 61.117C216.587 60.243 216.15 59.07 216.15 57.598V56.08C216.15 54.608 216.587 53.458 217.461 52.63C218.381 51.756 219.83 51.319 221.808 51.319C223.786 51.319 225.212 51.756 226.086 52.63C227.006 53.458 227.466 54.608 227.466 56.08V57.598C227.466 59.07 227.006 60.243 226.086 61.117C225.212 61.945 223.786 62.359 221.808 62.359ZM216.978 66.775H226.638V103H216.978V66.775ZM235.036 103V66.775H244.696V72.916H245.8C246.076 71.95 246.444 71.053 246.904 70.225C247.364 69.397 247.939 68.661 248.629 68.017C249.319 67.373 250.124 66.867 251.044 66.499C251.964 66.131 253.022 65.947 254.218 65.947C257.484 65.947 259.968 67.051 261.67 69.259C263.418 71.421 264.292 74.457 264.292 78.367V103H254.632V80.23C254.632 75.952 253.137 73.813 250.147 73.813C248.675 73.813 247.387 74.273 246.283 75.193C245.225 76.067 244.696 77.309 244.696 78.919V103H235.036ZM277.129 62.359C275.151 62.359 273.702 61.945 272.782 61.117C271.908 60.243 271.471 59.07 271.471 57.598V56.08C271.471 54.608 271.908 53.458 272.782 52.63C273.702 51.756 275.151 51.319 277.129 51.319C279.107 51.319 280.533 51.756 281.407 52.63C282.327 53.458 282.787 54.608 282.787 56.08V57.598C282.787 59.07 282.327 60.243 281.407 61.117C280.533 61.945 279.107 62.359 277.129 62.359ZM272.299 66.775H281.959V103H272.299V66.775ZM303.605 103.828C298.545 103.828 294.727 102.287 292.151 99.205C289.575 96.123 288.287 91.362 288.287 84.922C288.287 78.482 289.575 73.721 292.151 70.639C294.727 67.511 298.545 65.947 303.605 65.947C307.193 65.947 310.045 66.775 312.161 68.431C314.323 70.041 315.864 72.341 316.784 75.331L308.987 78.781C308.757 77.033 308.228 75.745 307.4 74.917C306.572 74.043 305.307 73.606 303.605 73.606C300.109 73.606 298.361 75.676 298.361 79.816V89.959C298.361 94.099 300.109 96.169 303.605 96.169C305.353 96.169 306.641 95.732 307.469 94.858C308.343 93.938 308.987 92.558 309.401 90.718L316.922 94.03C314.944 100.562 310.505 103.828 303.605 103.828ZM340.574 103.828C337.676 103.828 335.054 103.391 332.708 102.517C330.362 101.597 328.361 100.148 326.705 98.17C325.049 96.146 323.761 93.57 322.841 90.442C321.921 87.268 321.461 83.427 321.461 78.919C321.461 74.411 321.921 70.593 322.841 67.465C323.761 64.291 325.049 61.715 326.705 59.737C328.361 57.713 330.362 56.264 332.708 55.39C335.054 54.47 337.676 54.01 340.574 54.01C343.472 54.01 346.094 54.47 348.44 55.39C350.786 56.264 352.787 57.713 354.443 59.737C356.099 61.715 357.387 64.291 358.307 67.465C359.227 70.593 359.687 74.411 359.687 78.919C359.687 83.427 359.227 87.268 358.307 90.442C357.387 93.57 356.099 96.146 354.443 98.17C352.787 100.148 350.786 101.597 348.44 102.517C346.094 103.391 343.472 103.828 340.574 103.828ZM340.574 95.134C343.334 95.134 345.45 94.306 346.922 92.65C348.44 90.994 349.199 88.51 349.199 85.198V72.64C349.199 69.328 348.44 66.844 346.922 65.188C345.45 63.532 343.334 62.704 340.574 62.704C337.814 62.704 335.675 63.532 334.157 65.188C332.685 66.844 331.949 69.328 331.949 72.64V85.198C331.949 88.51 332.685 90.994 334.157 92.65C335.675 94.306 337.814 95.134 340.574 95.134ZM366.904 66.775H376.564V72.778H377.668C377.852 71.812 378.197 70.915 378.703 70.087C379.255 69.259 379.899 68.546 380.635 67.948C381.371 67.304 382.199 66.821 383.119 66.499C384.039 66.131 384.982 65.947 385.948 65.947C390.134 65.947 393.193 67.534 395.125 70.708C397.103 73.882 398.092 78.62 398.092 84.922C398.092 91.224 397.126 95.962 395.194 99.136C393.262 102.264 390.18 103.828 385.948 103.828C384.982 103.828 384.039 103.644 383.119 103.276C382.199 102.954 381.371 102.494 380.635 101.896C379.899 101.252 379.255 100.516 378.703 99.688C378.197 98.86 377.852 97.963 377.668 96.997H376.564V116.8H366.904V66.775ZM382.084 95.962C383.878 95.962 385.304 95.41 386.362 94.306C387.466 93.156 388.018 91.546 388.018 89.476V80.299C388.018 78.229 387.466 76.642 386.362 75.538C385.304 74.388 383.878 73.813 382.084 73.813C380.336 73.813 378.979 74.227 378.013 75.055C377.047 75.837 376.564 77.033 376.564 78.643V91.132C376.564 92.742 377.047 93.961 378.013 94.789C378.979 95.571 380.336 95.962 382.084 95.962ZM416.226 103.828C410.292 103.828 405.554 101.689 402.012 97.411L407.739 91.684C409.947 94.812 412.845 96.376 416.433 96.376C419.515 96.376 421.056 95.134 421.056 92.65C421.056 91.684 420.803 90.948 420.297 90.442C419.837 89.89 419.055 89.499 417.951 89.269L414.294 88.579C410.384 87.843 407.555 86.624 405.807 84.922C404.105 83.174 403.254 80.713 403.254 77.539C403.254 73.721 404.381 70.846 406.635 68.914C408.889 66.936 412.178 65.947 416.502 65.947C419.4 65.947 421.907 66.407 424.023 67.327C426.185 68.201 428.071 69.558 429.681 71.398L424.161 77.056C422.091 74.618 419.561 73.399 416.571 73.399C413.765 73.399 412.362 74.641 412.362 77.125C412.362 78.137 412.615 78.896 413.121 79.402C413.627 79.908 414.455 80.276 415.605 80.506L419.4 81.196C423.218 81.886 425.955 83.059 427.611 84.715C429.313 86.325 430.164 88.648 430.164 91.684C430.164 95.594 428.945 98.607 426.507 100.723C424.069 102.793 420.642 103.828 416.226 103.828Z" fill="white"/>
</svg>
